<?xml version="1.0" standalone="no"?>
<!DOCTYPE svg PUBLIC "-//W3C//DTD SVG 20010904//EN"
 "http://www.w3.org/TR/2001/REC-SVG-20010904/DTD/svg10.dtd">
<svg version="1.0" xmlns="http://www.w3.org/2000/svg"
 width="16.000000pt" height="16.000000pt" viewBox="0 0 16.000000 16.000000"
 preserveAspectRatio="xMidYMid meet">

<g transform="translate(0.000000,16.000000) scale(0.100000,-0.100000)"
fill="#000000" stroke="none">
<path d="M29 131 c-37 -37 -37 -65 0 -102 37 -37 65 -37 102 0 37 37 37 65 0
102 -16 16 -39 29 -51 29 -12 0 -35 -13 -51 -29z m80 -32 c11 -19 10 -24 -9
-43 -19 -17 -22 -18 -17 -3 5 14 1 17 -23 17 -17 0 -30 5 -30 10 0 6 13 10 30
10 22 0 28 4 24 15 -9 23 9 18 25 -6z"/>
</g>
</svg>
